<?xml version="1.0"?><svg version="1.1" id="Layer_1" xmlns="http://www.w3.org/2000/svg" x="0" y="0" viewBox="0 0 100 100" xml:space="preserve"><path d="M43.3 19.6C42 14.5 45.1 9.2 50.2 7.9c.6-.2 1.2-.3 1.8-.3h.7c3.8-.2 7.6.1 11.2 1.1 3.4.8 6.8 2.3 10 4.4 3.2 2.1 5.8 4.5 8 7.2 2.2 2.8 3.9 5.9 5.1 9.2.3.8.6 1.7.8 2.5.2.9.4 1.7.6 2.6l.1.6.4 3.2v3.8c-.1.9-.1 1.7-.2 2.6-.3 1.8-.6 3.4-1.1 4.9-1 3.3-2.5 6.2-4.4 8.8-1.9 2.6-4.2 4.9-6.7 6.8-.2.1-.4.3-.7.5-.5.3-.9.6-1.3.9l-2.1 1.2c-1.5.7-2.9 1.3-4.3 1.7-3.2 1-6.2 1.4-9.1 1.3-3.1-.1-6-.6-8.8-1.6-2.8-1-5.3-2.5-7.6-4.2l-1-.9c-.2-.1-.4-.3-.6-.5l-1.6-1.6-1.4-1.9c-.2-.2-.3-.4-.5-.7l-.6-.9c-.5-.7-.9-1.5-1.3-2.3.5.7 1.1 1.4 1.7 2l.6.7c.2.2.5.6.8.8l1.4 1.2 1.7 1.2c.3.2.6.4.8.5l1 .6c2.3 1.2 4.8 2.1 7.5 2.6 2.5.4 5.1.4 7.6 0 2.3-.3 4.7-1.1 7-2.3 1-.5 1.9-1.1 2.7-1.6l1.8-1.4c.3-.2.6-.5.8-.8l.4-.4.1-.1c1.6-1.7 2.9-3.6 4-5.7.9-2 1.6-4.2 1.8-6.4.1-.9.1-1.8.1-2.6v-.8c-.1-.5-.1-.9-.1-1.4 0-.4-.1-.7-.2-1l-.2-1c0-.2-.1-.3-.1-.5l-.5-1.5-.3-.9c-.2-.4-.4-.8-.5-1.2l-.1-.2c-.2-.4-.4-.8-.7-1.2l-.1-.1c-1.1-1.7-2.4-3.3-3.9-4.6-1.4-1.2-3.1-2.2-5.1-3-2-.8-3.8-1.2-5.5-1.2-1.7-.1-3.5.1-5.3.6-4.9 1.2-10.1-1.8-11.5-7z" fill="#a8b980"/><path d="M34.2 72.9c-2-.8-3.7-1.8-5.1-3-1.5-1.3-2.8-2.8-3.9-4.6l-.1-.1c-.2-.4-.4-.8-.7-1.2l-.1-.2c-.2-.4-.3-.8-.5-1.2l-.3-.9-.5-1.5c0-.2-.1-.3-.1-.5l-.2-1c-.1-.3-.1-.6-.2-1 0-.4-.1-.9-.1-1.4v-.8c0-.8 0-1.7.1-2.6.3-2.3.9-4.5 1.8-6.4 1-2.1 2.3-4 4-5.7l.1-.1.4-.4.8-.8 1.8-1.4c.8-.6 1.7-1.2 2.7-1.6 2.4-1.2 4.7-2 7-2.3 2.5-.4 5.1-.4 7.6 0 2.6.5 5.1 1.4 7.4 2.6l1 .6c.3.1.6.3.9.6l1.6 1.1 1.4 1.2c.3.2.6.6.8.8l.6.7c.6.7 1.2 1.3 1.7 2-.4-.8-.8-1.5-1.3-2.3l-.6-.9c-.2-.3-.4-.5-.5-.7l-1.4-1.7-1.3-1.7c-.2-.2-.4-.4-.6-.5l-1-.9c-2.3-1.8-4.8-3.2-7.6-4.2-2.7-1-5.7-1.5-8.8-1.6-2.9-.1-5.9.3-9.1 1.3-1.4.4-2.8 1-4.3 1.7l-2.1 1.2c-.4.2-.8.5-1.3.9-.2.2-.4.3-.7.5-2.5 1.9-4.8 4.1-6.7 6.8-1.9 2.6-3.3 5.6-4.4 8.8-.5 1.5-.8 3.1-1.1 4.9-.1.9-.2 1.7-.2 2.6v3.8l.4 3.2.1.6c.2.9.4 1.7.6 2.6.3.8.5 1.7.8 2.5 1.2 3.3 2.9 6.4 5.1 9.2 2.1 2.7 4.8 5.1 8 7.2 3.2 2.1 6.6 3.6 10 4.4 3.6.9 7.4 1.3 11.2 1.1h.7c.6 0 1.2-.1 1.8-.3 2.5-.6 4.6-2.2 5.9-4.4 1.3-2.2 1.7-4.8 1-7.3-1.3-5.1-6.6-8.2-11.7-6.9-1.8.5-3.5.7-5.3.6-1.7-.2-3.5-.6-5.5-1.4z" fill="#ea7c60"/><metadata xmlns:d="https://loading.io/stock/">
<d:name>soul</d:name>
<d:tags>taiji,balance,harmony,recycle,refresh,soul,spinner</d:tags>
<d:license>by</d:license>
<d:slug>hobrz4</d:slug>
</metadata></svg>